<?xml version="1.0" encoding="iso-8859-1"?>
<!-- Generator: Adobe Illustrator 16.0.0, SVG Export Plug-In . SVG Version: 6.00 Build 0)  -->
<!DOCTYPE svg PUBLIC "-//W3C//DTD SVG 1.1//EN" "http://www.w3.org/Graphics/SVG/1.1/DTD/svg11.dtd">
<svg version="1.1" id="Capa_1" xmlns="http://www.w3.org/2000/svg" xmlns:xlink="http://www.w3.org/1999/xlink" x="0px" y="0px"
	 width="434.971px" height="434.971px" viewBox="0 0 434.971 434.971" style="enable-background:new 0 0 434.971 434.971;"
	 xml:space="preserve">
<g>
	<g>
		<path d="M363.709,58.632H149.226c-7.363,0-13.333,5.971-13.333,13.333v291.576c0,7.363,5.97,13.332,13.333,13.332h214.483
			c7.363,0,13.332-5.969,13.332-13.332V71.965C377.041,64.602,371.072,58.632,363.709,58.632z M350.377,350.211h-187.82V85.296
			h187.82V350.211z"/>
		<path d="M378.199,6.555H105.097c-31.305,0-56.771,25.472-56.771,56.777v18.702H36.733C16.479,82.034,0,98.51,0,118.762
			c0,20.258,16.479,36.732,36.733,36.732h11.593v25.258H36.733C16.479,180.752,0,197.228,0,217.484
			c0,20.252,16.479,36.733,36.733,36.733h11.593v25.257H36.733C16.479,279.475,0,295.951,0,316.203
			c0,20.258,16.479,36.732,36.733,36.732h11.593v18.709c0,31.305,25.465,56.771,56.771,56.771h273.103
			c31.305,0,56.771-25.467,56.771-56.771V63.333C434.969,32.027,409.504,6.555,378.199,6.555z M26.663,118.762
			c0-5.547,4.518-10.064,10.07-10.064h49.851c5.552,0,10.07,4.518,10.07,10.064c0,5.551-4.518,10.069-10.07,10.069H36.733
			C31.181,128.832,26.663,124.313,26.663,118.762z M26.663,217.486c0-5.554,4.518-10.07,10.07-10.07h49.851
			c5.552,0,10.07,4.518,10.07,10.07c0,5.551-4.518,10.069-10.07,10.069H36.733C31.181,227.556,26.663,223.037,26.663,217.486z
			 M26.663,316.203c0-5.545,4.518-10.062,10.07-10.062h49.851c5.552,0,10.07,4.518,10.07,10.062c0,5.555-4.518,10.072-10.07,10.072
			H36.733C31.181,326.275,26.663,321.758,26.663,316.203z M408.307,371.646c0,16.6-13.508,30.105-30.107,30.105H105.097
			c-16.6,0-30.106-13.508-30.106-30.105v-18.709h11.593c20.254,0,36.734-16.477,36.734-36.734c0-20.252-16.48-36.727-36.734-36.727
			H74.991v-25.258h11.593c20.254,0,36.734-16.48,36.734-36.732c0-20.258-16.48-36.733-36.734-36.733H74.991v-25.258h11.593
			c20.254,0,36.734-16.475,36.734-36.732c0-20.252-16.48-36.728-36.734-36.728H74.991V63.333c0-16.606,13.507-30.114,30.106-30.114
			h273.103c16.602,0,30.107,13.508,30.107,30.114V371.646z"/>
		<path d="M190.92,139.872h131.09c7.361,0,13.33-5.969,13.33-13.331c0-7.362-5.969-13.332-13.33-13.332H190.92
			c-7.363,0-13.333,5.97-13.333,13.332C177.587,133.903,183.557,139.872,190.92,139.872z"/>
		<path d="M190.92,179.867h131.09c7.361,0,13.33-5.97,13.33-13.331c0-7.363-5.969-13.332-13.33-13.332H190.92
			c-7.363,0-13.333,5.969-13.333,13.332C177.588,173.897,183.557,179.867,190.92,179.867z"/>
		<path d="M190.92,219.861h131.09c7.361,0,13.33-5.969,13.33-13.332c0-7.361-5.969-13.331-13.33-13.331H190.92
			c-7.363,0-13.333,5.97-13.333,13.331C177.588,213.892,183.557,219.861,190.92,219.861z"/>
		<path d="M190.92,259.857h131.09c7.361,0,13.33-5.97,13.33-13.332c0-7.363-5.969-13.332-13.33-13.332H190.92
			c-7.363,0-13.333,5.969-13.333,13.332C177.588,253.888,183.557,259.857,190.92,259.857z"/>
		<path d="M190.92,299.852h131.09c7.361,0,13.33-5.97,13.33-13.332c0-7.361-5.969-13.33-13.33-13.33H190.92
			c-7.363,0-13.333,5.969-13.333,13.33C177.588,293.882,183.557,299.852,190.92,299.852z"/>
	</g>
</g>
<g>
</g>
<g>
</g>
<g>
</g>
<g>
</g>
<g>
</g>
<g>
</g>
<g>
</g>
<g>
</g>
<g>
</g>
<g>
</g>
<g>
</g>
<g>
</g>
<g>
</g>
<g>
</g>
<g>
</g>
</svg>
