<?xml version="1.0" encoding="iso-8859-1"?>
<!-- Generator: Adobe Illustrator 16.0.0, SVG Export Plug-In . SVG Version: 6.00 Build 0)  -->
<!DOCTYPE svg PUBLIC "-//W3C//DTD SVG 1.1//EN" "http://www.w3.org/Graphics/SVG/1.1/DTD/svg11.dtd">
<svg version="1.1" id="Capa_1" xmlns="http://www.w3.org/2000/svg" xmlns:xlink="http://www.w3.org/1999/xlink" x="0px" y="0px"
	 width="349.947px" height="349.947px" viewBox="0 0 349.947 349.947" style="enable-background:new 0 0 349.947 349.947;"
	 xml:space="preserve">
<g>
	<path d="M24.323,349.947c5.545,0,11.094-2.138,15.3-6.389l129.139-130.533c18.075,11.674,39.536,18.531,62.6,18.531
		c63.843,0,115.778-51.941,115.778-115.778S295.211,0,231.362,0C167.52,0,115.587,51.941,115.587,115.778
		c0,25.235,8.208,48.546,21.969,67.59L9.026,313.294c-8.356,8.448-8.284,22.073,0.165,30.433
		C13.385,347.875,18.85,349.947,24.323,349.947z M231.362,43.042c40.106,0,72.736,32.633,72.736,72.736
		c0,40.103-32.63,72.735-72.736,72.735c-40.101,0-72.733-32.633-72.733-72.735C158.629,75.675,191.262,43.042,231.362,43.042z"/>
	<path d="M188.074,115.778c0-23.869,19.419-43.289,43.288-43.289c5.098,0,9.224-4.125,9.224-9.223c0-5.099-4.126-9.224-9.224-9.224
		c-34.035,0-61.735,27.694-61.735,61.735c0,5.098,4.128,9.223,9.224,9.223C183.948,125.001,188.074,120.876,188.074,115.778z"/>
</g>
<g>
</g>
<g>
</g>
<g>
</g>
<g>
</g>
<g>
</g>
<g>
</g>
<g>
</g>
<g>
</g>
<g>
</g>
<g>
</g>
<g>
</g>
<g>
</g>
<g>
</g>
<g>
</g>
<g>
</g>
</svg>
